# xmcd CD database file
#
# Track frame offsets:
#	150
#	46234
#	70779
#	89155
#	100280
#	114547
#	125764
#	144782
#	157788
#	181788
#	203459
#	236215
#	254011
#	266850
#	294500
#	307731
#	318967
#
# Disc length: 4434 seconds
#
# Revision: 0
# Processed by: cddbd v1.5PL3 Copyright (c) Steve Scherf et al.
# Submitted via: CDex 1.51
#
DISCID=ef115011
DTITLE=Blues For The Red Sun - Blues For The Red Sun
DYEAR=1900
DGENRE=Blues
TTITLE0=John Lee Hooker/ Never Get Out of These Blues
TTITLE1=Albert King/ Born Under A Bad Sign
TTITLE2=John Hiatt/ Crossing Muddy Waters
TTITLE3=John Hiatt/ Gods Golden Eyes
TTITLE4=Michael Bloomfield/ Born in Chicago
TTITLE5=Michael Bloomfield/ I've Got You in the Palm of My
TTITLE6=Michael Bloomfield/ Killing Floor
TTITLE7=Night On The Delta/ I'm Satisfied
TTITLE8=John Hurt/ Monday Morning Blues
TTITLE9=Muddy Waters/ Going Down Slow
TTITLE10=John Fahey/ Rquiem
TTITLE11=Blind Snooks Eaglin/ Funky Malaguena
TTITLE12=Little Water/ Rollin And Tumblin
TTITLE13=Bo Diddley/ I Just want to make love to you
TTITLE14=Guitar Slim/ Bad Luck Blues
TTITLE15=Guitar Slim/ Well I done Got Over
TTITLE16=Guitar Slim/ The Story of my Live
EXTD=
EXTT0=
EXTT1=
EXTT2=
EXTT3=
EXTT4=
EXTT5=
EXTT6=
EXTT7=
EXTT8=
EXTT9=
EXTT10=
EXTT11=
EXTT12=
EXTT13=
EXTT14=
EXTT15=
EXTT16=
PLAYORDER=
